<svg width="400" height="400" viewBox="0 0 400 400" fill="none" xmlns="http://www.w3.org/2000/svg">
<path fill-rule="evenodd" clip-rule="evenodd" d="M166.4 83.489L133.3 116.738L144.9 128.619L156.5 140.5L169 127.822C175.875 120.849 181.838 115.112 182.25 115.072C182.662 115.032 183 153.25 183 200C183 246.75 182.662 284.968 182.25 284.928C181.838 284.888 175.875 279.151 169 272.178L156.5 259.5L144.886 271.395L133.273 283.289L166.677 316.58L200.081 349.871L233.371 316.547L266.662 283.223L255.081 271.362L243.5 259.5L231 272.178C224.125 279.151 218.162 284.888 217.75 284.928C217.338 284.968 217.004 246.638 217.01 199.75L217.02 114.5L230.013 127.578L243.006 140.656L254.857 128.693L266.708 116.73L233.343 83.365C214.992 65.014 199.87 50.054 199.739 50.119C199.608 50.185 184.605 65.201 166.4 83.489Z" fill="currentColor"/>
</svg>
