<svg width="400" height="400" viewBox="0 0 400 400" fill="none" xmlns="http://www.w3.org/2000/svg">
<path fill-rule="evenodd" clip-rule="evenodd" d="M212.25 6.52502L210 8.92902V146.464C210 283.333 209.99 284 208 284C206.9 284 206 283.55 206 283C206 282.45 205.1 282 204 282C202.9 282 202 281.55 202 281C202 280.45 201.1 280 200 280C198.9 280 198 279.55 198 279C198 278.45 196.65 278 195 278C193.35 278 192 277.55 192 277C192 276.45 190.2 276 188 276C185.8 276 184 275.55 184 275C184 274.444 181.333 274 178 274C174.667 274 172 273.556 172 273C172 272.378 166.333 272 157 272C147.667 272 142 272.378 142 273C142 273.556 139.333 274 136 274C132.667 274 130 274.444 130 275C130 275.55 128.2 276 126 276C123.8 276 122 276.45 122 277C122 277.55 120.65 278 119 278C117.35 278 116 278.45 116 279C116 279.55 115.1 280 114 280C112.9 280 112 280.45 112 281C112 281.55 111.1 282 110 282C108.9 282 108 282.45 108 283C108 283.55 107.1 284 106 284C104.9 284 104 284.45 104 285C104 285.55 103.199 286 102.221 286C101.242 286 99.793 286.9 99 288C98.207 289.1 96.976 290 96.263 290C94.444 290 80 304.64 80 306.484C80 307.318 79.55 308 79 308C78.45 308 78 308.9 78 310C78 311.1 77.55 312 77 312C76.45 312 76 312.9 76 314C76 315.1 75.55 316 75 316C74.45 316 74 317.35 74 319C74 320.65 73.55 322 73 322C72.389 322 72 326.667 72 334C72 341.333 72.389 346 73 346C73.55 346 74 347.35 74 349C74 350.65 74.45 352 75 352C75.55 352 76 352.9 76 354C76 355.1 76.45 356 77 356C77.55 356 78 356.9 78 358C78 359.1 78.45 360 79 360C79.55 360 80 360.682 80 361.516C80 363.36 94.444 378 96.263 378C96.976 378 98.207 378.9 99 380C99.793 381.1 101.242 382 102.221 382C103.199 382 104 382.45 104 383C104 383.55 104.9 384 106 384C107.1 384 108 384.45 108 385C108 385.55 108.9 386 110 386C111.1 386 112 386.45 112 387C112 387.55 113.35 388 115 388C116.65 388 118 388.45 118 389C118 389.55 118.9 390 120 390C121.1 390 122 390.45 122 391C122 391.55 123.8 392 126 392C128.2 392 130 392.45 130 393C130 393.556 132.667 394 136 394C139.333 394 142 394.444 142 395C142 395.622 147.667 396 157 396C166.333 396 172 395.622 172 395C172 394.444 174.667 394 178 394C181.333 394 184 393.556 184 393C184 392.45 185.8 392 188 392C190.2 392 192 391.55 192 391C192 390.45 193.35 390 195 390C196.65 390 198 389.55 198 389C198 388.45 198.9 388 200 388C201.1 388 202 387.55 202 387C202 386.45 203.35 386 205 386C206.65 386 208 385.55 208 385C208 384.45 208.801 384 209.779 384C210.758 384 212.207 383.1 213 382C213.793 380.9 215.143 380 216 380C216.857 380 218.207 379.1 219 378C219.793 376.9 221.029 376 221.747 376C223.446 376 232 367.446 232 365.747C232 365.029 232.9 363.793 234 363C235.1 362.207 236 360.758 236 359.779C236 358.801 236.45 358 237 358C237.55 358 238 357.1 238 356C238 354.9 238.45 354 239 354C239.55 354 240 352.65 240 351C240 349.35 240.45 348 241 348C241.661 348 242 309.667 242 235V122H245C246.65 122 248 122.45 248 123C248 123.55 249.35 124 251 124C252.65 124 254 124.45 254 125C254 125.55 254.9 126 256 126C257.1 126 258 126.45 258 127C258 127.55 258.9 128 260 128C261.1 128 262 128.45 262 129C262 129.55 262.801 130 263.779 130C264.758 130 266.207 130.9 267 132C267.793 133.1 269.026 134 269.739 134C271.43 134 284 146.57 284 148.261C284 148.974 284.9 150.207 286 151C287.1 151.793 288 153.242 288 154.221C288 155.199 288.45 156 289 156C289.55 156 290 156.9 290 158C290 159.1 290.45 160 291 160C291.55 160 292 161.35 292 163C292 164.65 292.45 166 293 166C293.55 166 294 167.8 294 170C294 172.2 294.45 174 295 174C295.6 174 296 178 296 184C296 190 295.6 194 295 194C294.444 194 294 196.667 294 200C294 203.333 293.556 206 293 206C292.45 206 292 206.9 292 208C292 209.622 292.667 210 295.526 210C298.369 210 299.92 209.133 303.526 205.526C305.987 203.066 308 200.465 308 199.747C308 199.029 308.9 197.793 310 197C311.1 196.207 312 194.857 312 194C312 193.143 312.9 191.793 314 191C315.1 190.207 316 188.758 316 187.779C316 186.801 316.45 186 317 186C317.55 186 318 185.1 318 184C318 182.9 318.45 182 319 182C319.55 182 320 181.1 320 180C320 178.9 320.45 178 321 178C321.55 178 322 176.65 322 175C322 173.35 322.45 172 323 172C323.55 172 324 170.65 324 169C324 167.35 324.45 166 325 166C325.55 166 326 164.2 326 162C326 159.8 326.45 158 327 158C327.615 158 328 153 328 145C328 137 327.615 132 327 132C326.45 132 326 130.65 326 129C326 127.35 325.55 126 325 126C324.45 126 324 124.749 324 123.221C324 121.589 323.174 119.847 322 119C320.9 118.207 320 116.938 320 116.18C320 115.423 318.65 113.541 317 112C315.35 110.459 314 108.688 314 108.065C314 106.605 307.412 100 305.955 100C305.343 100 303.114 98.2 301 96C298.886 93.8 296.627 92 295.98 92C295.332 92 293.541 90.65 292 89C290.459 87.35 288.659 86 288 86C287.341 86 285.541 84.65 284 83C282.459 81.35 280.659 80 280 80C279.341 80 277.541 78.65 276 77C274.459 75.35 272.695 74 272.08 74C270.624 74 258 61.376 258 59.92C258 59.305 256.65 57.541 255 56C253.35 54.459 252 52.478 252 51.599C252 50.719 251.55 50 251 50C250.45 50 250 49.1 250 48C250 46.9 249.55 46 249 46C248.45 46 248 45.1 248 44C248 42.9 247.55 42 247 42C246.45 42 246 40.2 246 38C246 35.8 245.55 34 245 34C244.444 34 244 31.333 244 28C244 24.667 243.556 22 243 22C242.435 22 242 19.143 242 15.429C242 8.67202 240.745 6.00002 237.571 6.00002C236.707 6.00002 236 5.55002 236 5.00002C236 4.39202 231.791 4.02402 225.25 4.06102C215.23 4.11802 214.347 4.28502 212.25 6.52502Z" fill="currentColor"/>
</svg>
