<svg width="400" height="400" viewBox="0 0 400 400" fill="none" xmlns="http://www.w3.org/2000/svg">
<path fill-rule="evenodd" clip-rule="evenodd" d="M110.757 109.503L5.013 202.923L15.589 214.961C21.405 221.583 26.465 226.991 26.832 226.981C27.199 226.97 63.05 195.503 106.5 157.053L185.5 87.144L186 235.677L186.5 384.209L290.5 304.724C351.008 258.478 394.451 224.616 394.383 223.751C394.267 222.272 376.955 199.054 376 199.096C375.725 199.108 340.175 226.014 297 258.888L218.5 318.657L218.247 167.329C218.108 84.098 217.658 16.019 217.247 16.042C216.836 16.065 168.915 58.123 110.757 109.503Z" fill="currentColor"/>
</svg>
