<svg width="400" height="400" viewBox="0 0 400 400" fill="none" xmlns="http://www.w3.org/2000/svg">
<path fill-rule="evenodd" clip-rule="evenodd" d="M103.75 51.683C101.688 51.924 100 52.544 100 53.06C100 53.577 99.325 54 98.5 54C97.675 54 97 54.45 97 55C97 55.55 95.698 56 94.107 56C92.458 56 90.966 56.645 90.638 57.5C90.322 58.325 89.149 59 88.031 59C86.914 59 86 59.45 86 60C86 60.55 85.535 61 84.967 61C84.398 61 82.325 62.526 80.358 64.392C76.572 67.984 76.52 68.034 72.416 72.139C70.965 73.59 69.327 75.227 68.777 75.777C65.058 79.496 63 82.053 63 82.955C63 83.53 62.55 84 62 84C61.45 84 61 84.9 61 86C61 87.1 60.559 88 60.019 88C59.48 88 58.756 89.125 58.411 90.5C58.066 91.875 57.382 93 56.892 93C56.401 93 56 93.9 56 95C56 96.1 55.55 97 55 97C54.45 97 54 97.675 54 98.5C54 99.325 53.6 100 53.111 100C52.623 100 51.927 101.575 51.566 103.5C51.205 105.425 50.48 107 49.955 107C49.43 107 49 108.35 49 110C49 111.65 48.55 113 48 113C47.45 113 47 114.125 47 115.5C47 116.875 46.55 118 46 118C45.45 118 45 119.125 45 120.5C45 121.875 44.614 123 44.142 123C43.671 123 42.991 125.813 42.633 129.25C42.274 132.688 41.535 135.65 40.99 135.833C40.446 136.017 40 138.154 40 140.583C40 143.012 39.55 145 39 145C38.45 145 38 146.987 38 149.417C38 151.846 37.569 153.983 37.041 154.167C36.514 154.35 35.771 161.137 35.389 169.25C35.008 177.363 34.315 184 33.848 184C33.382 184 33 187.6 33 192V200H50H67V194C67 190.7 67.381 188 67.846 188C68.311 188 68.997 181.588 69.37 173.75C69.743 165.912 70.487 159.35 71.024 159.167C71.561 158.983 72 156.846 72 154.417C72 151.988 72.45 150 73 150C73.55 150 74 148.425 74 146.5C74 144.575 74.392 143 74.871 143C75.35 143 76.047 140.3 76.42 137C76.794 133.7 77.527 131 78.05 131C78.572 131 79 129.65 79 128C79 126.35 79.45 125 80 125C80.55 125 81 124.325 81 123.5C81 122.675 81.45 122 82 122C82.55 122 83 120.875 83 119.5C83 118.125 83.41 117 83.912 117C84.414 117 85.125 115.219 85.493 113.042C85.941 110.39 86.795 108.882 88.081 108.474C89.136 108.139 90 107.16 90 106.297C90 105.435 91.125 103.687 92.5 102.412C93.875 101.138 95 99.604 95 99.002C95 97.633 99.561 93 100.909 93C101.459 93 103.034 91.875 104.409 90.5C105.784 89.125 107.342 88 107.871 88C108.4 88 109.016 87.453 109.239 86.783C109.525 85.925 113.012 85.557 121.072 85.533L132.5 85.5L138.75 91.75C142.188 95.188 145 98.627 145 99.393C145 100.159 145.675 101.045 146.5 101.362C147.325 101.678 148 102.851 148 103.969C148 105.086 148.45 106 149 106C149.55 106 150 106.675 150 107.5C150 108.325 150.45 109 151 109C151.55 109 152 109.9 152 111C152 112.1 152.4 113 152.889 113C153.377 113 154.073 114.575 154.434 116.5C154.795 118.425 155.52 120 156.045 120C156.57 120 157 121.125 157 122.5C157 123.875 157.45 125 158 125C158.55 125 159 125.9 159 127C159 128.1 159.45 129 160 129C160.55 129 161 130.125 161 131.5C161 132.875 161.391 134 161.868 134C162.346 134 162.992 135.903 163.304 138.228C163.616 140.554 164.35 142.617 164.935 142.812C165.521 143.007 166 144.479 166 146.083C166 147.688 166.45 149 167 149C167.55 149 168 150.125 168 151.5C168 152.875 168.428 154 168.95 154C169.473 154 170.206 156.7 170.58 160C170.953 163.3 171.65 166 172.129 166C172.608 166 173 167.35 173 169C173 170.65 173.45 172 174 172C174.55 172 175 173.125 175 174.5C175 175.875 175.45 177 176 177C176.55 177 177 178.537 177 180.417C177 182.296 177.446 183.983 177.99 184.167C178.535 184.35 179.274 187.313 179.633 190.75C179.991 194.187 180.671 197 181.142 197C181.614 197 182 198.125 182 199.5C182 200.875 182.45 202 183 202C183.55 202 184 203.575 184 205.5C184 207.425 184.428 209 184.95 209C185.473 209 186.206 211.7 186.58 215C186.953 218.3 187.65 221 188.129 221C188.608 221 189 222.35 189 224C189 225.65 189.45 227 190 227C190.55 227 191 228.575 191 230.5C191 232.425 191.45 234 192 234C192.55 234 193 235.125 193 236.5C193 237.875 193.398 239 193.884 239C194.369 239 195.08 241.925 195.463 245.5C195.846 249.075 196.573 252 197.08 252C197.586 252 198 253.125 198 254.5C198 255.875 198.45 257 199 257C199.55 257 200 258.125 200 259.5C200 260.875 200.398 262 200.885 262C201.371 262 202.079 264.475 202.457 267.5C202.835 270.525 203.562 273 204.072 273C204.582 273 205 274.125 205 275.5C205 276.875 205.45 278 206 278C206.55 278 207 278.9 207 280C207 281.1 207.45 282 208 282C208.55 282 209 283.125 209 284.5C209 285.875 209.422 287 209.939 287C210.455 287 211.181 289.025 211.552 291.5C211.923 293.975 212.626 296 213.114 296C213.601 296 214 296.9 214 298C214 299.1 214.45 300 215 300C215.55 300 216 300.675 216 301.5C216 302.325 216.4 303 216.889 303C217.377 303 218.073 304.575 218.434 306.5C218.795 308.425 219.52 310 220.045 310C220.57 310 221 310.801 221 311.779C221 312.758 221.9 314.207 223 315C224.1 315.793 225 316.824 225 317.292C225 317.76 225.675 318.818 226.5 319.643C227.325 320.468 228 322.011 228 323.071C228 324.132 228.381 325 228.847 325C230.239 325 234 328.638 234 329.984C234 331.195 241.422 339 242.573 339C242.886 339 243.818 339.675 244.643 340.5C245.468 341.325 246.98 342 248.004 342C249.028 342 250.151 342.9 250.5 344C250.849 345.1 251.967 346 252.984 346C254.001 346 255.021 346.562 255.251 347.25C255.568 348.199 260.924 348.5 277.501 348.5C294.079 348.5 299.434 348.199 299.75 347.25C299.979 346.562 300.804 346 301.583 346C302.363 346 303 345.55 303 345C303 344.45 304.302 344 305.893 344C307.542 344 309.034 343.355 309.362 342.5C309.678 341.675 310.851 341 311.969 341C313.086 341 314 340.55 314 340C314 339.45 314.465 339 315.033 339C315.602 339 317.642 337.425 319.567 335.5C321.492 333.575 323.522 332 324.079 332C325.152 332 330 327.499 330 326.503C330 325.849 331.391 324.09 334.75 320.497C335.988 319.174 337 317.786 337 317.413C337 317.04 337.84 316.006 338.866 315.116C339.892 314.226 341.053 312.036 341.445 310.249C341.838 308.462 342.573 307 343.079 307C343.586 307 344 306.1 344 305C344 303.9 344.45 303 345 303C345.55 303 346 302.325 346 301.5C346 300.675 346.4 300 346.889 300C347.377 300 348.073 298.425 348.434 296.5C348.795 294.575 349.52 293 350.045 293C350.57 293 351 292.1 351 291C351 289.9 351.45 289 352 289C352.55 289 353 287.875 353 286.5C353 285.125 353.45 284 354 284C354.55 284 355 282.65 355 281C355 279.35 355.392 278 355.871 278C356.35 278 357.047 275.3 357.42 272C357.794 268.7 358.527 266 359.05 266C359.572 266 360 263.975 360 261.5C360 259.025 360.45 257 361 257C361.55 257 362 255.012 362 252.583C362 250.154 362.43 248.017 362.955 247.833C363.48 247.65 364.222 241.537 364.604 234.25C364.986 226.963 365.682 221 366.15 221C366.617 221 367 216.275 367 210.5V200H350H333V209C333 213.95 332.619 218 332.154 218C331.688 218 331.011 223.512 330.649 230.25C330.287 236.987 329.543 242.65 328.995 242.833C328.448 243.017 328 244.929 328 247.083C328 249.238 327.55 251 327 251C326.45 251 326 252.8 326 255C326 257.2 325.608 259 325.129 259C324.65 259 323.953 261.7 323.58 265C323.206 268.3 322.473 271 321.95 271C321.428 271 321 272.125 321 273.5C321 274.875 320.55 276 320 276C319.45 276 319 276.9 319 278C319 279.1 318.55 280 318 280C317.45 280 317 280.675 317 281.5C317 282.325 316.59 283 316.088 283C315.586 283 314.872 284.8 314.5 287C314.128 289.2 313.414 291 312.912 291C312.41 291 312 291.47 312 292.045C312 292.62 310.875 294.216 309.5 295.591C308.125 296.966 307 298.556 307 299.124C307 300.535 299.128 308 297.639 308C296.98 308 295.793 308.9 295 310C294.207 311.1 293.02 312 292.363 312C291.705 312 290.984 312.547 290.761 313.217C290.475 314.075 286.987 314.443 278.92 314.467L267.484 314.5L262.242 309.237C259.359 306.342 257 303.47 257 302.854C257 302.238 256.164 301.007 255.143 300.117C254.122 299.228 252.966 297.488 252.576 296.25C252.185 295.012 251.446 294 250.933 294C250.42 294 250 293.325 250 292.5C250 291.675 249.55 291 249 291C248.45 291 248 290.1 248 289C248 287.9 247.578 287 247.061 287C246.545 287 245.819 284.975 245.448 282.5C245.077 280.025 244.374 278 243.886 278C243.399 278 243 277.325 243 276.5C243 275.675 242.55 275 242 275C241.45 275 241 273.65 241 272C241 270.35 240.55 269 240 269C239.45 269 239 268.325 239 267.5C239 266.675 238.602 266 238.115 266C237.629 266 236.921 263.525 236.543 260.5C236.165 257.475 235.438 255 234.928 255C234.418 255 234 253.875 234 252.5C234 251.125 233.55 250 233 250C232.45 250 232 248.65 232 247C232 245.35 231.592 244 231.094 244C230.595 244 229.878 241.75 229.5 239C229.122 236.25 228.405 234 227.906 234C227.408 234 227 232.65 227 231C227 229.35 226.55 228 226 228C225.45 228 225 226.425 225 224.5C225 222.575 224.55 221 224 221C223.45 221 223 219.875 223 218.5C223 217.125 222.602 216 222.116 216C221.631 216 220.92 213.075 220.537 209.5C220.154 205.925 219.427 203 218.92 203C218.414 203 218 201.425 218 199.5C218 197.575 217.55 196 217 196C216.45 196 216 194.875 216 193.5C216 192.125 215.608 191 215.129 191C214.65 191 213.953 188.3 213.58 185C213.206 181.7 212.473 179 211.95 179C211.428 179 211 177.2 211 175C211 172.8 210.55 171 210 171C209.45 171 209 169.875 209 168.5C209 167.125 208.55 166 208 166C207.45 166 207 164.425 207 162.5C207 160.575 206.582 159 206.072 159C205.562 159 204.835 156.525 204.457 153.5C204.079 150.475 203.371 148 202.885 148C202.398 148 202 146.875 202 145.5C202 144.125 201.55 143 201 143C200.45 143 200 141.875 200 140.5C200 139.125 199.602 138 199.115 138C198.629 138 197.921 135.525 197.543 132.5C197.165 129.475 196.438 127 195.928 127C195.418 127 195 125.875 195 124.5C195 123.125 194.55 122 194 122C193.45 122 193 121.1 193 120C193 118.9 192.55 118 192 118C191.45 118 191 116.875 191 115.5C191 114.125 190.578 113 190.061 113C189.545 113 188.819 110.975 188.448 108.5C188.077 106.025 187.374 104 186.886 104C186.399 104 186 103.1 186 102C186 100.9 185.55 100 185 100C184.45 100 184 99.325 184 98.5C184 97.675 183.6 97 183.111 97C182.623 97 181.927 95.425 181.566 93.5C181.205 91.575 180.48 90 179.955 90C179.43 90 179 89.199 179 88.221C179 87.242 178.1 85.793 177 85C175.9 84.207 175 83.176 175 82.708C175 82.24 174.325 81.182 173.5 80.357C172.675 79.532 172 77.989 172 76.929C172 75.868 171.619 75 171.153 75C169.761 75 166 71.362 166 70.016C166 68.805 158.578 61 157.427 61C157.114 61 156.182 60.325 155.357 59.5C154.532 58.675 153.02 58 151.996 58C150.972 58 149.849 57.1 149.5 56C149.151 54.9 148.033 54 147.016 54C145.999 54 144.979 53.438 144.751 52.75C144.44 51.817 139.67 51.468 125.917 51.372C115.788 51.302 105.813 51.442 103.75 51.683Z" fill="currentColor"/>
</svg>
