<svg width="400" height="400" viewBox="0 0 400 400" fill="none" xmlns="http://www.w3.org/2000/svg">
<path fill-rule="evenodd" clip-rule="evenodd" d="M115 36.5C115 37.325 114.55 38 114 38C113.45 38 113 38.9 113 40C113 41.1 112.55 42 112 42C111.45 42 111 42.675 111 43.5C111 44.325 110.55 45 110 45C109.45 45 109 45.9 109 47C109 48.1 108.57 49 108.045 49C107.52 49 106.795 50.575 106.434 52.5C106.073 54.425 105.377 56 104.889 56C104.4 56 104 56.675 104 57.5C104 58.325 103.55 59 103 59C102.45 59 102 59.9 102 61C102 62.1 101.6 63 101.111 63C100.623 63 99.927 64.575 99.566 66.5C99.205 68.425 98.48 70 97.955 70C97.43 70 97 70.9 97 72C97 73.1 96.55 74 96 74C95.45 74 95 74.675 95 75.5C95 76.325 94.55 77 94 77C93.45 77 93 77.9 93 79C93 80.1 92.57 81 92.045 81C91.52 81 90.795 82.575 90.434 84.5C90.073 86.425 89.377 88 88.889 88C88.4 88 88 88.675 88 89.5C88 90.325 87.55 91 87 91C86.45 91 86 91.9 86 93C86 94.1 85.6 95 85.111 95C84.623 95 83.927 96.575 83.566 98.5C83.205 100.425 82.48 102 81.955 102C81.43 102 81 102.9 81 104C81 105.1 80.55 106 80 106C79.45 106 79 106.675 79 107.5C79 108.325 78.55 109 78 109C77.45 109 77 109.9 77 111C77 112.1 76.57 113 76.045 113C75.52 113 74.795 114.575 74.434 116.5C74.073 118.425 73.377 120 72.889 120C72.4 120 72 120.675 72 121.5C72 122.325 71.55 123 71 123C70.45 123 70 123.9 70 125C70 126.1 69.6 127 69.111 127C68.623 127 67.927 128.575 67.566 130.5C67.205 132.425 66.48 134 65.955 134C65.43 134 65 134.9 65 136C65 137.1 64.55 138 64 138C63.45 138 63 138.675 63 139.5C63 140.325 62.55 141 62 141C61.45 141 61 141.9 61 143C61 144.1 60.57 145 60.045 145C59.52 145 58.795 146.575 58.434 148.5C58.073 150.425 57.377 152 56.889 152C56.4 152 56 152.675 56 153.5C56 154.325 55.55 155 55 155C54.45 155 54 155.9 54 157C54 158.1 53.6 159 53.111 159C52.623 159 51.927 160.575 51.566 162.5C51.205 164.425 50.48 166 49.955 166C49.43 166 49 166.9 49 168C49 169.1 48.55 170 48 170C47.45 170 47 170.675 47 171.5C47 172.325 46.55 173 46 173C45.45 173 45 173.9 45 175C45 176.1 44.57 177 44.045 177C43.52 177 42.795 178.575 42.434 180.5C42.073 182.425 41.377 184 40.889 184C40.4 184 40 184.675 40 185.5C40 186.325 39.55 187 39 187C38.45 187 38 187.862 38 188.917C38 189.971 37.571 190.983 37.047 191.167C36.523 191.35 35.79 193.412 35.419 195.75L34.744 200H53.372C69.264 200 72 199.78 72 198.5C72 197.675 72.45 197 73 197C73.55 197 74 196.1 74 195C74 193.9 74.4 193 74.889 193C75.377 193 76.073 191.425 76.434 189.5C76.795 187.575 77.52 186 78.045 186C78.57 186 79 185.1 79 184C79 182.9 79.45 182 80 182C80.55 182 81 181.325 81 180.5C81 179.675 81.45 179 82 179C82.55 179 83 178.1 83 177C83 175.9 83.399 175 83.886 175C84.374 175 85.077 172.975 85.448 170.5C85.819 168.025 86.545 166 87.061 166C87.578 166 88 165.325 88 164.5C88 163.675 88.45 163 89 163C89.55 163 90 162.1 90 161C90 159.9 90.43 159 90.955 159C91.48 159 92.205 157.425 92.566 155.5C92.927 153.575 93.623 152 94.111 152C94.6 152 95 151.325 95 150.5C95 149.675 95.45 149 96 149C96.55 149 97 148.1 97 147C97 145.9 97.45 145 98 145C98.55 145 99 144.1 99 143C99 141.9 99.43 141 99.955 141C100.48 141 101.205 139.425 101.566 137.5C101.927 135.575 102.623 134 103.111 134C103.6 134 104 133.325 104 132.5C104 131.675 104.45 131 105 131C105.55 131 106 129.65 106 128C106 126.35 106.43 125 106.955 125C107.48 125 108.205 123.425 108.566 121.5C108.927 119.575 109.623 118 110.111 118C110.6 118 111 117.325 111 116.5C111 115.675 111.45 115 112 115C112.55 115 113 114.1 113 113C113 111.9 113.45 111 114 111C114.55 111 115 110.325 115 109.5C115 108.675 115.394 108 115.875 108C116.356 108 117.02 106.65 117.35 105C118.021 101.644 120 100.897 120 104C120 105.1 120.401 106 120.892 106C121.382 106 122.066 107.125 122.411 108.5C122.756 109.875 123.48 111 124.019 111C124.559 111 125 111.9 125 113C125 114.1 125.45 115 126 115C126.55 115 127 115.576 127 116.279C127 116.983 127.9 118.207 129 119C130.1 119.793 131 121.256 131 122.252C131 123.248 131.675 124.322 132.5 124.638C133.325 124.955 134 126.066 134 127.107C134 128.148 134.45 129 135 129C135.55 129 136 129.852 136 130.893C136 131.934 136.675 133.045 137.5 133.362C138.325 133.678 139 134.752 139 135.748C139 136.744 139.9 138.207 141 139C142.1 139.793 143 141.017 143 141.721C143 142.424 143.45 143 144 143C144.55 143 145 143.9 145 145C145 146.1 145.42 147 145.933 147C146.446 147 147.185 148.012 147.576 149.25C147.966 150.488 149.122 152.228 150.143 153.117C151.164 154.007 152 155.244 152 155.867C152 156.49 152.45 157 153 157C153.55 157 154 157.868 154 158.929C154 159.989 154.675 161.532 155.5 162.357C156.325 163.182 157 164.339 157 164.929C157 165.518 157.45 166 158 166C158.55 166 159 166.735 159 167.633C159 168.531 159.836 169.993 160.857 170.883C161.878 171.772 163.034 173.512 163.424 174.75C163.815 175.987 164.554 177 165.067 177C165.58 177 166 177.9 166 179C166 180.1 166.45 181 167 181C167.55 181 168 181.675 168 182.5C168 183.325 168.42 184 168.933 184C169.446 184 170.185 185.012 170.576 186.25C170.966 187.487 172.122 189.228 173.143 190.117C174.164 191.007 175 192.469 175 193.367C175 194.265 175.45 195 176 195C176.55 195 177 195.482 177 196.071C177 196.661 177.675 197.818 178.5 198.643C179.325 199.468 180 200.98 180 202.004C180 203.028 180.9 204.151 182 204.5C183.1 204.849 184 206.004 184 207.067C184 208.13 184.45 209 185 209C185.55 209 186 209.914 186 211.031C186 212.149 186.675 213.322 187.5 213.638C188.325 213.955 189 215.066 189 216.107C189 217.148 189.45 218 190 218C190.55 218 191 218.51 191 219.133C191 219.756 191.828 220.993 192.84 221.883C193.852 222.772 194.986 224.738 195.359 226.25C195.733 227.762 196.48 229 197.019 229C197.559 229 198 229.675 198 230.5C198 231.325 198.45 232 199 232C199.55 232 200 232.852 200 233.893C200 234.934 200.675 236.045 201.5 236.362C202.325 236.678 203 237.752 203 238.748C203 239.744 203.9 241.207 205 242C206.1 242.793 207 244.017 207 244.721C207 245.424 207.45 246 208 246C208.55 246 209 246.9 209 248C209 249.1 209.42 250 209.933 250C210.446 250 211.185 251.012 211.576 252.25C211.966 253.487 213.122 255.228 214.143 256.117C215.164 257.007 216 258.469 216 259.367C216 260.265 216.401 261 216.892 261C217.382 261 218.066 262.125 218.411 263.5C218.756 264.875 219.48 266 220.019 266C220.559 266 221 266.675 221 267.5C221 268.325 221.45 269 222 269C222.55 269 223 269.735 223 270.633C223 271.531 223.836 272.993 224.857 273.883C225.878 274.772 227.034 276.512 227.424 277.75C227.815 278.988 228.554 280 229.067 280C229.58 280 230 280.9 230 282C230 283.1 230.45 284 231 284C231.55 284 232 284.482 232 285.071C232 285.661 232.675 286.818 233.5 287.643C234.325 288.468 235 289.98 235 291.004C235 292.028 235.9 293.151 237 293.5C238.1 293.849 239 295.004 239 296.067C239 297.13 239.45 298 240 298C240.55 298 241 298.675 241 299.5C241 300.325 241.441 301 241.981 301C242.52 301 243.267 302.238 243.641 303.75C244.014 305.262 245.148 307.228 246.16 308.117C247.172 309.007 248 310.244 248 310.867C248 311.49 248.45 312 249 312C249.55 312 250 312.914 250 314.031C250 315.149 250.675 316.322 251.5 316.638C252.325 316.955 253 318.066 253 319.107C253 320.148 253.45 321 254 321C254.55 321 255 321.87 255 322.933C255 323.996 255.9 325.151 257 325.5C258.1 325.849 259 326.972 259 327.996C259 329.02 259.675 330.532 260.5 331.357C261.325 332.182 262 333.339 262 333.929C262 334.518 262.45 335 263 335C263.55 335 264 335.9 264 337C264 338.1 264.42 339 264.933 339C265.446 339 266.185 340.012 266.576 341.25C266.966 342.488 268.122 344.228 269.143 345.117C270.164 346.007 271 347.244 271 347.867C271 348.49 271.45 349 272 349C272.55 349 273 349.9 273 351C273 352.1 273.42 353 273.933 353C274.446 353 275.185 354.012 275.576 355.25C275.966 356.488 277.122 358.228 278.143 359.117C279.164 360.007 280 361.421 280 362.26C280 363.683 281.963 365 284.082 365C284.587 365 285 364.325 285 363.5C285 362.675 285.45 362 286 362C286.55 362 287 361.1 287 360C287 358.9 287.45 358 288 358C288.55 358 289 357.325 289 356.5C289 355.675 289.45 355 290 355C290.55 355 291 354.1 291 353C291 351.9 291.43 351 291.955 351C292.48 351 293.205 349.425 293.566 347.5C293.927 345.575 294.623 344 295.111 344C295.6 344 296 343.325 296 342.5C296 341.675 296.45 341 297 341C297.55 341 298 340.1 298 339C298 337.9 298.4 337 298.889 337C299.377 337 300.073 335.425 300.434 333.5C300.795 331.575 301.52 330 302.045 330C302.57 330 303 329.1 303 328C303 326.9 303.45 326 304 326C304.55 326 305 325.325 305 324.5C305 323.675 305.45 323 306 323C306.55 323 307 322.1 307 321C307 319.9 307.43 319 307.955 319C308.48 319 309.205 317.425 309.566 315.5C309.927 313.575 310.623 312 311.111 312C311.6 312 312 311.325 312 310.5C312 309.675 312.45 309 313 309C313.55 309 314 308.1 314 307C314 305.9 314.4 305 314.889 305C315.377 305 316.073 303.425 316.434 301.5C316.795 299.575 317.52 298 318.045 298C318.57 298 319 297.1 319 296C319 294.9 319.45 294 320 294C320.55 294 321 293.325 321 292.5C321 291.675 321.45 291 322 291C322.55 291 323 290.1 323 289C323 287.9 323.43 287 323.955 287C324.48 287 325.205 285.425 325.566 283.5C325.927 281.575 326.623 280 327.111 280C327.6 280 328 279.325 328 278.5C328 277.675 328.45 277 329 277C329.55 277 330 276.1 330 275C330 273.9 330.4 273 330.889 273C331.377 273 332.073 271.425 332.434 269.5C332.795 267.575 333.52 266 334.045 266C334.57 266 335 265.1 335 264C335 262.9 335.45 262 336 262C336.55 262 337 261.325 337 260.5C337 259.675 337.45 259 338 259C338.55 259 339 258.1 339 257C339 255.9 339.43 255 339.955 255C340.48 255 341.205 253.425 341.566 251.5C341.927 249.575 342.623 248 343.111 248C343.6 248 344 247.325 344 246.5C344 245.675 344.45 245 345 245C345.55 245 346 244.1 346 243C346 241.9 346.4 241 346.889 241C347.377 241 348.073 239.425 348.434 237.5C348.795 235.575 349.52 234 350.045 234C350.57 234 351 233.1 351 232C351 230.9 351.45 230 352 230C352.55 230 353 229.325 353 228.5C353 227.675 353.45 227 354 227C354.55 227 355 226.1 355 225C355 223.9 355.43 223 355.955 223C356.48 223 357.205 221.425 357.566 219.5C357.927 217.575 358.623 216 359.111 216C359.6 216 360 215.325 360 214.5C360 213.675 360.45 213 361 213C361.55 213 362 212.138 362 211.083C362 210.029 362.429 209.017 362.953 208.833C363.477 208.65 364.21 206.588 364.581 204.25L365.256 200H346.628C330.736 200 328 200.22 328 201.5C328 202.325 327.55 203 327 203C326.45 203 326 203.9 326 205C326 206.1 325.6 207 325.111 207C324.623 207 323.927 208.575 323.566 210.5C323.205 212.425 322.48 214 321.955 214C321.43 214 321 214.9 321 216C321 217.1 320.55 218 320 218C319.45 218 319 218.675 319 219.5C319 220.325 318.55 221 318 221C317.45 221 317 221.9 317 223C317 224.1 316.601 225 316.114 225C315.626 225 314.923 227.025 314.552 229.5C314.181 231.975 313.455 234 312.939 234C312.422 234 312 234.675 312 235.5C312 236.325 311.55 237 311 237C310.45 237 310 237.9 310 239C310 240.1 309.57 241 309.045 241C308.52 241 307.795 242.575 307.434 244.5C307.073 246.425 306.377 248 305.889 248C305.4 248 305 248.675 305 249.5C305 250.325 304.55 251 304 251C303.45 251 303 251.9 303 253C303 254.1 302.55 255 302 255C301.45 255 301 255.9 301 257C301 258.1 300.57 259 300.045 259C299.52 259 298.795 260.575 298.434 262.5C298.073 264.425 297.377 266 296.889 266C296.4 266 296 266.675 296 267.5C296 268.325 295.55 269 295 269C294.45 269 294 270.35 294 272C294 273.65 293.57 275 293.045 275C292.52 275 291.795 276.575 291.434 278.5C291.073 280.425 290.377 282 289.889 282C289.4 282 289 282.675 289 283.5C289 284.325 288.55 285 288 285C287.45 285 287 285.9 287 287C287 288.1 286.55 289 286 289C285.45 289 285 289.675 285 290.5C285 291.325 284.606 292 284.125 292C283.644 292 282.98 293.35 282.65 295C281.979 298.356 280 299.103 280 296C280 294.9 279.599 294 279.108 294C278.618 294 277.934 292.875 277.589 291.5C277.244 290.125 276.52 289 275.981 289C275.441 289 275 288.199 275 287.221C275 286.242 274.1 284.793 273 284C271.9 283.207 271 281.983 271 281.279C271 280.576 270.55 280 270 280C269.45 280 269 279.086 269 277.969C269 276.851 268.325 275.678 267.5 275.362C266.675 275.045 266 273.934 266 272.893C266 271.852 265.55 271 265 271C264.45 271 264 270.148 264 269.107C264 268.066 263.325 266.955 262.5 266.638C261.675 266.322 261 265.248 261 264.252C261 263.256 260.1 261.793 259 261C257.9 260.207 257 258.983 257 258.279C257 257.576 256.55 257 256 257C255.45 257 255 256.1 255 255C255 253.9 254.58 253 254.067 253C253.554 253 252.815 251.987 252.424 250.75C252.034 249.512 250.878 247.772 249.857 246.883C248.836 245.993 248 244.756 248 244.133C248 243.51 247.55 243 247 243C246.45 243 246 242.132 246 241.071C246 240.011 245.325 238.468 244.5 237.643C243.675 236.818 243 235.661 243 235.071C243 234.482 242.55 234 242 234C241.45 234 241 233.265 241 232.367C241 231.469 240.164 230.007 239.143 229.117C238.122 228.228 236.966 226.488 236.576 225.25C236.185 224.012 235.446 223 234.933 223C234.42 223 234 222.1 234 221C234 219.9 233.55 219 233 219C232.45 219 232 218.325 232 217.5C232 216.675 231.58 216 231.067 216C230.554 216 229.815 214.987 229.424 213.75C229.034 212.512 227.878 210.772 226.857 209.883C225.836 208.993 225 207.531 225 206.633C225 205.735 224.55 205 224 205C223.45 205 223 204.518 223 203.929C223 203.339 222.325 202.182 221.5 201.357C220.675 200.532 220 199.02 220 197.996C220 196.972 219.1 195.849 218 195.5C216.9 195.151 216 193.996 216 192.933C216 191.87 215.55 191 215 191C214.45 191 214 190.086 214 188.969C214 187.851 213.325 186.678 212.5 186.362C211.675 186.045 211 184.934 211 183.893C211 182.852 210.55 182 210 182C209.45 182 209 181.49 209 180.867C209 180.244 208.172 179.007 207.16 178.117C206.148 177.228 205.014 175.262 204.641 173.75C204.267 172.238 203.52 171 202.981 171C202.441 171 202 170.325 202 169.5C202 168.675 201.55 168 201 168C200.45 168 200 167.148 200 166.107C200 165.066 199.325 163.955 198.5 163.638C197.675 163.322 197 162.248 197 161.252C197 160.256 196.1 158.793 195 158C193.9 157.207 193 155.983 193 155.279C193 154.576 192.55 154 192 154C191.45 154 191 153.1 191 152C191 150.9 190.58 150 190.067 150C189.554 150 188.815 148.987 188.424 147.75C188.034 146.512 186.878 144.772 185.857 143.883C184.836 142.993 184 141.531 184 140.633C184 139.735 183.599 139 183.108 139C182.618 139 181.934 137.875 181.589 136.5C181.244 135.125 180.52 134 179.981 134C179.441 134 179 133.325 179 132.5C179 131.675 178.55 131 178 131C177.45 131 177 130.265 177 129.367C177 128.469 176.164 127.007 175.143 126.117C174.122 125.228 172.966 123.487 172.576 122.25C172.185 121.012 171.446 120 170.933 120C170.42 120 170 119.1 170 118C170 116.9 169.55 116 169 116C168.45 116 168 115.518 168 114.929C168 114.339 167.325 113.182 166.5 112.357C165.675 111.532 165 110.02 165 108.996C165 107.972 164.1 106.849 163 106.5C161.9 106.151 161 104.996 161 103.933C161 102.87 160.55 102 160 102C159.45 102 159 101.325 159 100.5C159 99.675 158.559 99 158.019 99C157.48 99 156.733 97.763 156.359 96.25C155.986 94.737 154.852 92.772 153.84 91.883C152.828 90.993 152 89.756 152 89.133C152 88.51 151.55 88 151 88C150.45 88 150 87.086 150 85.969C150 84.851 149.325 83.678 148.5 83.362C147.675 83.045 147 81.934 147 80.893C147 79.852 146.55 79 146 79C145.45 79 145 78.13 145 77.067C145 76.004 144.1 74.849 143 74.5C141.9 74.151 141 73.028 141 72.004C141 70.98 140.325 69.468 139.5 68.643C138.675 67.818 138 66.661 138 66.071C138 65.482 137.55 65 137 65C136.45 65 136 64.1 136 63C136 61.9 135.58 61 135.067 61C134.554 61 133.815 59.987 133.424 58.75C133.034 57.513 131.878 55.772 130.857 54.883C129.836 53.993 129 52.756 129 52.133C129 51.51 128.55 51 128 51C127.45 51 127 50.1 127 49C127 47.9 126.58 47 126.067 47C125.554 47 124.815 45.987 124.424 44.75C124.034 43.513 122.878 41.772 121.857 40.883C120.836 39.993 120 38.579 120 37.74C120 36.317 118.037 35 115.918 35C115.413 35 115 35.675 115 36.5Z" fill="currentColor"/>
</svg>
